# xmcd
#
# Track frame offsets:
#	150
#	12060
#	23810
#	37286
#	49249
#	60223
#	72688
#	84830
#	96480
#	108749
#	120366
#	132239
#	143072
#	155427
#	167604
#	179875
#	192563
#	205986
#	221131
#	236388
#	250175
#	259088
#	270961
#	280571
#
# Disc length: 3870 seconds
#
# Revision: 1
# Processed by: cddbd v1.5.2PL0 Copyright (c) Steve Scherf et al.
# Submitted via: EasyCDDAExtractor 2010.6.0.0
#
DISCID=5e0f1c18
DTITLE=Various Artist - La Fiesta Del 40 Tangos Para Bailar-15
DYEAR=2011
DGENRE=Tango
TTITLE0=Ricardo Tanturi - Al Compas De Un Tango
TTITLE1=Ricardo Tanturi - El Tango Es El Tango
TTITLE2=Ricardo Tanturi - Como Se Pianta La Vida
TTITLE3=Ricardo Tanturi - Otra Cosa Che Pebeta
TTITLE4=Carlos De Sarli - El Distinguido Ciudadano
TTITLE5=Carlos De Sarli - Carlos De Sarli -  La Morocha
TTITLE6=Carlos De Sarli - Royal Pigall
TTITLE7=Carlos De Sarli - Comme Il Faut
TTITLE8=Lucia Demare/Miguel Calo - Se Fue
TTITLE9=Lucia Demare/Miguel Calo - Bajo El Cielo Estrellas
TTITLE10=Lucia Demare/Miguel Calo - Al Pasar
TTITLE11=Lucia Demare/Miguel Calo - Pedacito De Cielo
TTITLE12=Alfredo De Angelis - El Pial
TTITLE13=Alfredo De Angelis - El Entreterranio
TTITLE14=Alfredo De Angelis - Guardia Vieja
TTITLE15=Alfredo De Angelis - El Taladro
TTITLE16=Horacio Salgan - Siga El Corso
TTITLE17=Horacio Salgan - Alm A De Loca
TTITLE18=Horacio Salgan - Pobre Colombina
TTITLE19=Horacio Salgan - Sueño Querido
TTITLE20=Juan D'arienzo - La Puñalada
TTITLE21=Juan D'arienzo - La Espuela
TTITLE22=Juan D'arienzo - La Endiablada
TTITLE23=Juan D'arienzo - El Porto
EXTD=
EXTT0=
EXTT1=
EXTT2=
EXTT3=
EXTT4=
EXTT5=
EXTT6=
EXTT7=
EXTT8=
EXTT9=
EXTT10=
EXTT11=
EXTT12=
EXTT13=
EXTT14=
EXTT15=
EXTT16=
EXTT17=
EXTT18=
EXTT19=
EXTT20=
EXTT21=
EXTT22=
EXTT23=
PLAYORDER=
